# xmcd
#
# Track frame offsets:
#	150
#	19977
#	40603
#	65517
#	91123
#	103696
#	120889
#	139982
#	153217
#	166016
#	186994
#	206299
#	226870
#	244348
#	265740
#	285317
#	312184
#	336869
#
# Disc length: 4795 seconds
#
# Revision: 0
# Processed by: cddbd v1.5.2PL0 Copyright (c) Steve Scherf et al.
# Submitted via: EasyCDDAExtractor 10.0.5.1
#
DISCID=e712b912
DTITLE=Various Artist - John Marks and Friends
DYEAR=2007
DGENRE=Trance
TTITLE0=Meivin Warnies - Muzika
TTITLE1=Joshua Kardeii - Dedication
TTITLE2=Marks and Gates - New Life
TTITLE3=Streets In Motion - Futurefunk
TTITLE4=John Marks - Carnival
TTITLE5=Artento Divini - Groove in me
TTITLE6=Bass and Ram meets Massimo Nocito - trancesetterz.nl
TTITLE7=El Toro - No trust
TTITLE8=John Marks - Insanity
TTITLE9=Frank van Poianen - Denmark
TTITLE10=Kalwi and Remi - Explosion
TTITLE11=Toy Gates - On my way
TTITLE12=The Shrink  Nervous breakdown reloaded
TTITLE13=Maarteh de Jons - Massive
TTITLE14=Roy Gates - Midnight sun
TTITLE15=John Marks - Tracking
TTITLE16=Kalwi and Remi vs. John Marks - Revolution
TTITLE17=Crystal Lake - Sax'n wax
EXTD=
EXTT0=
EXTT1=
EXTT2=
EXTT3=
EXTT4=
EXTT5=
EXTT6=
EXTT7=
EXTT8=
EXTT9=
EXTT10=
EXTT11=
EXTT12=
EXTT13=
EXTT14=
EXTT15=
EXTT16=
EXTT17=
PLAYORDER=
